<?xml version="1.0" encoding="utf-8"?>
<svg version="1.1" xmlns:xlink="http://www.w3.org/1999/xlink" width="88px" height="82px" xmlns="http://www.w3.org/2000/svg">
  <g transform="matrix(1 0 0 1 -65 -32 )">
    <path d="M 53.375 80.7205699573864  C 47.544921875 78.3637251420455  42.720703125 74.2506214488636  39.68359375 69.1001420454545  L 39.68359375 74.33251953125  C 36.080078125 71.9392755681818  32.69140625 66.6340997869318  30.474609375 59.31787109375  L 36.333984375 59.31787109375  C 36.20703125 58.3077947443182  36.12890625 57.2886186079545  36.12890625 56.2421431107955  C 36.12890625 55.5596590909091  36.1875 54.8953746448864  36.236328125 54.2310901988636  L 29.1953125 54.2310901988636  C 28.5703125 51.0916637073864  28.150390625 47.6883433948864  27.994140625 44  L 39.3125 44  C 40.806640625 41.3457919034091  42.779296875 38.9161487926136  45.142578125 36.8413973721591  L 45.142578125 29  L 58.84375 29  C 58.921875 29.2066761363636  58.9609375 29.6616654829545  59.029296875 30.0802556818182  C 60.796875 29.7435635653409  62.623046875 29.5706676136364  64.498046875 29.5524680397727  C 64.458984375 29.3067737926136  64.439453125 29.0428799715909  64.400390625 29  L 77.84765625 29  C 78.443359375 30.2349520596591  78.921875 31.7182173295455  79.302734375 33.2378817471591  C 82.515625 35.0032404119318  85.328125 37.3327858664773  87.57421875 40.0900213068182  C 87.046875 18.0685369318182  67.681640625 0.305752840909092  43.921875 0.305752840909092  C 19.83984375 0.305752840909091  0.25 18.5599254261364  0.25 41  C 0.25 63.4400745738636  19.83984375 81.6942471590909  43.921875 81.6942471590909  C 47.1640625 81.6942471590909  50.328125 81.3484552556818  53.375 80.7205699573864  Z M 57.14453125 9.43283913352272  C 64.712890625 12.1991743607954  71.05078125 17.2586558948864  75.171875 24  L 63.306640625 24  C 61.87109375 18.0594371448864  59.76171875 13.1910511363636  57.14453125 9.43283913352272  Z M 45 24  L 45 7.13969282670454  C 45.904296875 7.1669921875  46.67578125 7.17609197443182  47.427734375 7.24889026988636  C 51.470703125 9.46923828125  55.357421875 15.3386008522727  57.69140625 24  L 45 24  Z M 39.673828125 38.9616477272727  L 39.68359375 39  L 27.974609375 39  C 28.072265625 35.3399325284091  28.43359375 31.9366122159091  29.009765625 29  L 39.673828125 29  L 39.673828125 38.9616477272727  Z M 30.162109375 23.7013050426136  C 32.349609375 15.8481889204545  35.904296875 10.169921875  40 7.66748046875  L 40 23.7013050426136  L 30.162109375 23.7013050426136  Z M 12.671875 24  C 16.802734375 17.2586558948864  23.130859375 12.1991743607954  30.708984375 9.43283913352273  C 28.091796875 13.1910511363636  25.97265625 18.0594371448864  24.546875 24  L 12.671875 24  Z M 7.642578125 39  C 7.8671875 35.39453125  8.677734375 31.9821111505682  10.005859375 29  L 23.462890625 29  C 22.92578125 32.0094105113636  22.61328125 35.4218306107954  22.525390625 39  L 7.642578125 39  Z M 23.66796875 54  L 10.416015625 54  C 8.97070312500001 51.0552645596591  8.04296875000001 47.6337446732955  7.70117187500001 44  L 22.5546875 44  C 22.69140625 47.6155450994318  23.072265625 51.0188654119318  23.66796875 54  Z M 30.708984375 72.5671608664773  C 23.53125 69.9464222301136  17.466796875 65.2782315340909  13.3359375 59  L 24.80078125 59  C 26.2265625 64.5320490056818  28.248046875 69.0364435369318  30.708984375 72.5671608664773  Z " fill-rule="nonzero" fill="#524e48" stroke="none" transform="matrix(1 0 0 1 65 32 )" />
  </g>
</svg>