<?xml version="1.0" encoding="utf-8"?>
<svg version="1.1" xmlns:xlink="http://www.w3.org/1999/xlink" width="46px" height="43px" xmlns="http://www.w3.org/2000/svg">
  <g transform="matrix(1 0 0 1 -106 -67 )">
    <path d="M 45.752688172043 21.509128736413  C 45.752688172043 9.65090013586957  35.5800571236559 0.0474694293478194  23.0405745967742 0.0474694293478261  C 10.5010920698925 0.0474694293478261  0.328461021505369 9.66002887228261  0.328461021505369 21.509128736413  C 0.328461021505369 33.3582286005435  10.5010920698925 42.9707880434783  23.0405745967742 42.9707880434783  C 35.5800571236559 42.9707880434783  45.752688172043 33.3582286005435  45.752688172043 21.509128736413  Z M 34.140625 10.5637737771739  C 34.2662130376344 10.5546450407609  34.3338373655914 10.6915760869565  34.2565524193548 10.7919921875  L 27.1656586021505 19.3364894701087  L 32.0249495967742 19.3364894701087  L 32.0249495967742 21.700832201087  L 25.7648689516129 21.700832201087  L 25.7262264784946 21.7373471467391  L 25.7262264784946 24.7133152173913  L 32.0249495967742 24.7133152173913  L 32.0249495967742 27.0776579483696  L 25.7262264784946 27.0776579483696  L 25.7262264784946 32.4544836956522  L 20.9442204301075 32.4544836956522  L 20.9442204301075 27.0776579483696  L 14.6841397849462 27.0776579483696  L 14.6841397849462 24.7133152173913  L 20.9442204301075 24.7133152173913  L 20.9442204301075 21.7373471467391  L 20.9055779569892 21.700832201087  L 14.6841397849462 21.700832201087  L 14.6841397849462 19.3364894701087  L 19.5047883064516 19.3364894701087  L 12.4138944892473 10.7919921875  C 12.3366095430108 10.7007048233696  12.4042338709677 10.5637737771739  12.5298219086022 10.5637737771739  L 17.6113071236559 10.5637737771739  L 23.3400537634409 17.6476732336957  L 29.0688004032258 10.5637737771739  L 34.140625 10.5637737771739  Z " fill-rule="nonzero" fill="#524e48" stroke="none" transform="matrix(1 0 0 1 106 67 )" />
  </g>
</svg>