<?xml version="1.0" encoding="utf-8"?>
<svg version="1.1" xmlns:xlink="http://www.w3.org/1999/xlink" width="533px" height="464px" xmlns="http://www.w3.org/2000/svg">
  <g>
    <path d="M 0 0  L 533 0  L 533 464  L 0 464  L 0 0  " fill-rule="nonzero" fill="#cccccc" stroke="none" />
    <path d="M 32 32  L 501 32  L 501 432  L 32 432  L 32 32  " fill-rule="nonzero" fill="#ffffff" stroke="none" />
    <path d="M 311.96 139.2  C 292.472 139.2  277.16 123.888  277.16 104.4  C 277.16 84.912  292.472 69.6  311.96 69.6  C 331.448 69.6  346.76 84.912  346.76 104.4  C 346.76 123.888  331.448 139.2  311.96 139.2  " fill-rule="nonzero" fill="#cccccc" stroke="none" />
    <path d="M 44 421  L 44 213.65  L 155.5 119.4  L 311.6 224.082926829268  L 400.8 175.95  L 490 224.082926829268  L 490 421  L 44 421  " fill-rule="nonzero" fill="#169bd5" stroke="none" />
  </g>
</svg>