<?xml version="1.0" encoding="utf-8"?>
<svg version="1.1" xmlns:xlink="http://www.w3.org/1999/xlink" width="747px" height="574px" xmlns="http://www.w3.org/2000/svg">
  <g>
    <path d="M 0 0  L 747 0  L 747 574  L 0 574  L 0 0  " fill-rule="nonzero" fill="#cccccc" stroke="none" />
    <path d="M 40 40  L 707 40  L 707 534  L 40 534  L 40 40  " fill-rule="nonzero" fill="#ffffff" stroke="none" />
    <path d="M 431.49 172.2  C 407.382 172.2  388.44 153.258  388.44 129.15  C 388.44 105.042  407.382 86.1  431.49 86.1  C 455.598 86.1  474.54 105.042  474.54 129.15  C 474.54 153.258  455.598 172.2  431.49 172.2  " fill-rule="nonzero" fill="#cccccc" stroke="none" />
    <path d="M 55 520  L 55 264.25  L 214.5 148  L 437.8 305.614457831325  L 565.4 217.75  L 693 305.614457831325  L 693 520  L 55 520  " fill-rule="nonzero" fill="#169bd5" stroke="none" />
  </g>
</svg>